<svg xmlns="http://www.w3.org/2000/svg" enable-background="new 0 0 32 32" viewBox="0 0 32 32" id="videos">
  <path d="M4.6799927,28.3200073h18.4500122c1.3099976,0,2.4099731-0.9400024,2.6400146-2.1900024H8.8699951
	c-2.5800171,0-4.6799927-2.1000366-4.6799927-4.6799927V7.9099731C2.9400024,8.1499634,2,9.2399902,2,10.5499878v15.0999756
	C2,27.1199951,3.2000122,28.3200073,4.6799927,28.3200073z"></path>
  <polygon points="15.28 17.39 21.32 13.9 15.28 10.41"></polygon>
  <path d="M27.3200073,3.6799927H8.8699951c-1.4799805,0-2.6799927,1.2000122-2.6799927,2.6699829v15.1000366
	c0,1.4799805,1.2000122,2.6799927,2.6799927,2.6799927h18.4500122C28.7999878,24.1300049,30,22.9299927,30,21.4500122V6.3499756
	C30,4.8800049,28.7999878,3.6799927,27.3200073,3.6799927z M22.5599976,15.5l-6.5200195,3.7600098
	c-0.289978,0.1699829-0.6099854,0.25-0.9199829,0.25c-0.3200073,0-0.6300049-0.0800171-0.9199829-0.25
	c-0.5800171-0.3300171-0.9199829-0.9200439-0.9199829-1.5900269v-7.539978c0-0.6600342,0.3399658-1.2600098,0.9199829-1.5900269
	c0.5700073-0.3300171,1.2600098-0.3300171,1.8399658,0l6.5200195,3.7700195
	c0.5800171,0.3300171,0.9199829,0.9299927,0.9199829,1.5899658C23.4799805,14.5700073,23.1400146,15.1599731,22.5599976,15.5z"></path>
</svg>
